<?xml version="1.0" encoding="utf-8"?>
<!-- Generator: Adobe Illustrator 19.1.0, SVG Export Plug-In . SVG Version: 6.00 Build 0)  -->
<svg version="1.1" id="Layer_1" xmlns="http://www.w3.org/2000/svg" xmlns:xlink="http://www.w3.org/1999/xlink" x="0px" y="0px"
	 viewBox="0 0 1026 1024" style="enable-background:new 0 0 1026 1024;" xml:space="preserve">
<rect x="2" style="fill:#F3DDC1" width="1024" height="1024"/>
<g>
	<path style="fill:#F4CF90" d="M707.8,759.5c1,0.7,1.3,3.7,0.7,5.3c-0.4,1.1-2.7,2.1-4.2,2.1c-5.6,0-7.8-3.3-7.2-12.6
		C701.4,756.3,704.9,757.5,707.8,759.5z"/>
	<path style="fill:#F4CF90" d="M704.3,766.9c1.5,0,3.8-1,4.2-2.1c0.5-1.6,0.3-4.6-0.7-5.3c-2.9-2-6.4-3.2-10.7-5.2
		C696.5,763.6,698.7,766.9,704.3,766.9z"/>
</g>
<path style="fill:#EEAE52" d="M1025.6,976.1c-33.1,7.8-128.1,19.2-189.4,19.2c-48.3,0-122.7-6.5-158.6-16.9c-69.7-20.2-169.8-27.6-238.1-17.5
	c-38.5,5.7-73.5,9.1-110.6,12.7c-30.5,3-62.1,6-97.6,10.6C145,995.2,0.5,969.3,0,969.2v16.5c21.9,4.1,101,17.8,176.2,17.8
	c19.8,0,39.4-1,57.6-3.3c35.2-4.5,66.6-7.6,97-10.5c37.3-3.6,72.6-7,111.5-12.8c65.8-9.8,162.5-2.6,229.9,16.9
	c37.6,10.9,114.4,17.7,164,17.7c57.8,0,149.2-10.1,189.4-18.7V976.1z"/>
<path style="fill:#EEAE52" d="M1025.6,934.5c-33.1,7.8-128.1,19.2-189.4,19.2c-48.3,0-122.7-6.5-158.6-16.9c-69.7-20.2-169.8-27.6-238.1-17.5
	C401,925,366,928.4,328.9,932c-30.5,3-62.1,6-97.6,10.6C145,953.7,0.5,927.7,0,927.6v16.5c21.9,4.1,101,17.8,176.2,17.8
	c19.8,0,39.4-1,57.6-3.3c35.2-4.5,66.6-7.6,97-10.5c37.3-3.6,72.6-7,111.5-12.8c65.8-9.8,162.5-2.6,229.9,16.9
	c37.6,10.9,114.4,17.7,164,17.7c57.8,0,149.2-10.1,189.4-18.7V934.5z"/>
<path style="fill:#EEAE52" d="M1025.6,889.7c-58.1,14.5-203.4,42.2-348.1,2.3c-32.3-8.9-65.7-18.1-104.2-22.4c-41.3-4.6-83.8-3-133.9,5
	c-35.7,5.7-67.7,8.7-104.8,12.2c-29.8,2.8-63.5,6-103.2,11.1C145,908.9,24.9,887.5,1.8,883.1L1.5,883c-0.5-0.1-1-0.2-1.5-0.2v16.5
	c21.9,4.1,101,17.8,176.2,17.8c19.8,0,39.4-1,57.6-3.3c39.4-5,71.5-8.1,102.6-11c37.4-3.5,69.7-6.5,106-12.3
	c106.7-17,163.8-1.3,229.9,17c57.2,15.8,114.5,21.3,166.7,21.3c80.3,0,148.7-13.2,186.6-22.3V889.7z"/>
<g>
	<path style="fill:#EEAE52" d="M238.9,733.8c-6.6-0.1,9.7,71.4,13.2,78.7c13.1,27,36.7,44.7,64.5,54.4c58.6,20.4,127.3,11.9,168.7-39
		c43.9-54,27.8-125.1,1.1-181.9c-30.2-64.2-47.9-132.6-36.4-203.5c11.8-72,21.7-150.9,22.1-224.4c0.4-77.2-3.8-148.3-88.1-170.2
		c-69.4-18-166.3-0.3-210.7,61.8C133,166.1,137.6,246,157,308.6c18.5,59.5,52.5,115.1,68.2,175.9c9.9,38,20,76.6,20.3,117.1
		c0.2,24.3-1.7,47.9-4.2,72c-1.3,12.7-2,25.8-2.6,38.6C238.8,719.4,238.9,726.6,238.9,733.8c0-1.7,0-3.4,0-5.1
		C238.9,730.4,238.9,732.1,238.9,733.8C239.1,733.8,238.9,722.3,238.9,733.8z M550.2,186.5c-4,0,15.5,156.7,17.3,170.5
		c9.9,74.5,27.9,142.6,10.2,217.5c-15,63.8-48.3,113.1-45.3,180.2c3.1,69.8,56.2,117.8,125.5,122.1c84.8,5.3,145.6-47.3,146-132.4
		c0.2-40.1-8-78.5-10.2-118.2c-2.4-43.7,1-85.3,9.8-127.8c22.5-107.7,93.1-206,73.6-320c-14.3-83.4-82-132.8-163.8-137.4
		c-40.9-2.3-89.2,0-123.9,24.3C551.6,92,550.2,145,550.2,186.5c0,0,0-4.6,0-5C550.2,183.2,550.2,184.9,550.2,186.5
		C550.4,186.5,550.2,174.6,550.2,186.5z"/>
	<path style="fill:#EEAE52" d="M238.9,733.8c0-73.3,13.9-146.2-4.1-217.9c-15.8-62.9-46.1-122.1-69.7-182.7c-25.8-66.1-36.3-154.1,4-217.5
		C206.4,57.3,289,36.2,354.3,41.7c73.1,6.1,110,48.3,115.5,117.9c6.3,80.9-7.3,160.7-14.3,241.3c-2.6,30.5-11.7,60.7-10.4,91.9
		c1.3,32.6,8.7,64.6,17.9,95.4c20.7,69.2,68.2,125.8,43.4,202.2c-25,77-114.8,101.4-185.8,79c-29.8-9.4-55.5-29.6-69.2-58.2
		c-3.5-7.3-19.2-82.7-12.5-82.5C238.9,730.4,238.9,732.1,238.9,733.8C238.9,722.8,238.9,733.8,238.9,733.8z M451.6,202.5
		c2.7,0-3.6-63-3.9-64.9c-5.5-28.6-18.1-54.1-45.4-65.5C348,49.4,267.5,58.3,219.9,92.2c-123.4,87.8-22.6,252.8,15.1,357
		c21.8,60.3,35,127.3,30.6,191.9c-4.4,64.2-28.6,157.5,37.1,198.8c44.7,28.1,112.4,26.8,153.3-8.5c58.7-50.8,34.2-129.2,7.3-189.3
		c-27.3-61-47.6-131-34.9-198.2C443,366.3,451.6,281.8,451.6,202.5c0,1.7,0,3.4,0,5.1C451.6,205.9,451.6,204.2,451.6,202.5
		C451.6,202.5,451.6,214,451.6,202.5z"/>
	<path style="fill:#EEAE52" d="M550.2,186.5c0-35,0.1-75.7,22.4-105.3c22.3-29.6,69.8-38.8,104.3-40.2c69.8-2.8,147.1,16.8,181.9,83
		c60.7,115.5-15.3,225.4-45.6,333.8c-19.5,69.8-22.7,136.7-14.3,209c9,78.2,15.9,166.4-71.6,199.1c-67.1,25.1-157.5,6.6-186.6-66.2
		c-23.7-59-0.6-112.9,20.2-167.5C618,482.7,549.4,334,550.2,181.5C550.2,181.9,550.3,186.5,550.2,186.5
		C550.2,176,550.3,186.5,550.2,186.5z M861,219.1c3.9,0-9.4-60.6-11-65.1c-12.2-35.4-39-64.1-73.3-78.9
		c-49.9-21.5-151.7-32-188.9,19.4c-38.8,53.6-15.5,153.9-6.4,213.8c5.1,33.7,9.1,66.7,13,100.1c3.3,28,12.7,53.8,12.7,82.8
		c0.1,68-20,122.9-44,184.9c-22.6,58.7-17.1,134.9,44,167.7c41.9,22.5,107.4,19.4,144.4-12.3c62.2-53.3,22.2-162.9,22.1-232.5
		c-0.1-72.5,13-135.3,40-202C836.7,340.9,861,276.4,861,219.1C862,219.1,861,223.1,861,219.1z"/>
	<path style="fill:#FFFFFF" d="M451.6,202.5c0,72.8-7.9,148.8-19,220.3c-10.4,67.4-4.6,126.6,18.8,190.5c21.6,59,59,116.3,31.7,181.3
		c-24.1,57.5-95.5,75.2-151.1,58.1c-75-23.1-75.7-95.4-71.2-163.2c4.9-73.4,4-140.3-15.7-211.7c-31.3-113.6-138.4-244.8-51.3-361.1
		c41-54.7,130.9-66.8,192.9-49c26.3,7.5,45.1,20.1,55,47.4c1.7,4.7,15.7,92.4,9.9,92.4C451.6,205.9,451.6,204.2,451.6,202.5
		C451.6,212.6,451.6,202.5,451.6,202.5z M375.3,846c0,10.6,66.4-18.4,68.1-19.7c26.5-20.2,38.1-48.9,37.9-81.5
		c-0.3-53.3-31.4-97.7-47.4-146.2c-48.8-147.5,27-296.3,4.5-446.3c-4.8-32.3-11.9-56.1-43.6-69.7c-32.1-13.7-67.1-12.5-101.1-7.4
		c-54.8,8.3-96.5,41.3-113.4,95.8c-32.2,104.3,45.9,212.2,75.7,306.5c24.3,76.7,17.7,152,13.9,231.9c-1.8,39.4-3,87.7,30.7,114.8
		C322.2,841.8,348.7,846,375.3,846C375.3,846,367.3,846,375.3,846C375.4,846.3,368.9,846,375.3,846z"/>
	<path style="fill:#FFFFFF" d="M861,219.1c0,118.1-80.8,218.2-87.2,336.2c-2.6,47.5,4.3,93.5,7.6,140.5c2.3,33,7.3,72.5-6,103.6
		c-24.8,58-108.4,71.8-160.9,48c-133.3-60.6-16.3-224-7.2-319.6c6.7-70.1-15.5-145.4-24.6-214.5c-8.2-62.5-28.3-143.2-2.4-203.7
		c27.5-64.2,135.4-58.7,190-37.9c35.1,13.4,64.2,42.1,77.9,77.1C850.8,155.3,865.7,219.1,861,219.1C861,223.7,861,219.1,861,219.1z
		 M690.8,72c-0.1-7-67.2,9.7-71.3,11.9c-25.9,13.4-31.7,33.7-35.6,60.6c-10.5,72.2,7.2,147.6,17.4,218.8
		c10.3,72.3,24.8,138.1,9.5,210.8c-12.4,58.6-47.6,108.9-46.9,169.6c0.7,67.7,50.9,109.2,119.6,102.6c68.3-6.5,90.4-54.7,89.6-116.5
		c-0.9-71.7-17.3-139.6-6.3-212.3c9-59.6,33.6-114.8,54.8-171.3c22.3-59.1,39.8-126,18.3-188.2C816.7,91.6,754,72,690.8,72
		c1.6,0,3.2,0,4.8,0C694,72,692.4,72,690.8,72C690.8,71.9,701.6,72,690.8,72z"/>
	<path style="fill:#92371F" d="M375.1,846c-24.2,4.1-56.8-6.9-75.2-22.2c-33.3-27.8-32-76.2-30-115.8c3.7-74.7,9.4-144.2-9.3-217.2
		c-24-93.8-87.6-174.6-86.5-275.4c0.7-64.1,34.4-116.6,97.2-134.2C323,66.7,410.9,60,432.4,123.7c23.8,70.4,1.9,154.3-4,225.9
		c-6.4,77.2-21.1,146.4-2.2,223.2c14.4,58.7,54.7,110.8,55.2,173.1c0.3,35.8-16.5,69.6-48.2,88c-16.2,9.4-42.3,14.2-60.6,12.6
		C373.4,846.3,374.2,846.2,375.1,846z M411.2,156.4c4.4,0-10.3-26.7-12.2-28.9c-5.3-5.8-13.3-10.5-20.5-12.5
		c-29.8-8.6-62.2,16.4-57.3,47.9C329.5,215.5,411.2,205.8,411.2,156.4C411.1,156.4,411.2,158.3,411.2,156.4z"/>
	<path style="fill:#92371F" d="M693.5,70.6c53.3,1.7,116.8,25.3,140.6,75.5c23.3,49.1,16.4,108.3,1.8,158.4c-19.2,65.9-52.7,126.6-66.1,194.4
		c-14.2,71.6-2.4,138.7,3,210.1c4.8,63.9-6.1,118.1-75.4,134.1c-60.6,14-126.9-17.3-133.7-82.8c-6.6-63.5,29.3-110.8,43.3-170
		c7.3-30.7,13-61.4,13-93.3c-0.1-36.9-10.9-72.7-15.6-109.1c-10.1-77.6-31.1-160.2-20.7-238.6c2.7-19.9,5.1-45.9,23.1-58.7
		c21.1-15,53.8-20,79-20.2C688.3,70.4,690.9,70.5,693.5,70.6z M698.9,155.7c-7-71-113.9-41.6-84.8,18.6
		C636.4,220.3,698.9,191.8,698.9,155.7C698.4,151.3,698.9,158.4,698.9,155.7z"/>
	<path style="fill:#EFCFA9" d="M411.2,156.4c0,63.3-107.6,50.1-88.3-12c5.7-18.2,23.5-31.2,42.5-31.7C386.4,112.2,411.2,134.9,411.2,156.4z
		 M365.7,173c35.1,0.3,10-52.5-13.4-28.9c-7,7.1-6,16.1,0.1,23.3C356.4,172.3,373.6,173,365.7,173C374.5,173.1,364.6,173,365.7,173z
		"/>
	<path style="fill:#EFCFA9" d="M698.9,155.7c0,53.2-85.9,56.6-88.2,1.1c-1.2-28.5,25.9-48.7,53.2-43.5C688.5,117.9,697.4,141.3,698.9,155.7
		C698.9,159.6,698.3,150,698.9,155.7z M653.9,139c-26.3-8.8-19.1,52.7,10.8,31.5c13.2-9.4,5.3-38.2-11.9-32.6
		C653.9,137.5,663.9,138,653.9,139C644.4,135.8,665.9,137.8,653.9,139z"/>
	<path style="fill:#B45A27" d="M365.7,173c-23,0-24-32.4-1-33.9c26.6-1.7,21,34,2.4,33.9C370.5,173.1,370,173.1,365.7,173
		C360.2,173,374.3,173.1,365.7,173z"/>
	<path style="fill:#B45A27" d="M653.9,139c21.4-2.1,24.7,30.1,3.9,33.8c-9.6,1.7-20.1-5.1-21.4-15c-1.5-11.4,11.2-18.3,20.9-19.6
		c-1.2-0.5-2.5-0.6-3.8-0.2c0.5-0.2,1.6-0.1,2.2-0.2C655.9,137.9,652.6,138.6,653.9,139z"/>
</g>
<circle style="fill:#AD4625" cx="39.4" cy="940.7" r="23.1"/>
<circle style="fill:#AD4625" cx="106.2" cy="950.2" r="23.1"/>
<circle style="fill:#AD4625" cx="173" cy="951.1" r="23.1"/>
<circle style="fill:#AD4625" cx="239.8" cy="947.6" r="23.1"/>
<circle style="fill:#AD4625" cx="306.6" cy="939.9" r="23.1"/>
<circle style="fill:#AD4625" cx="373.4" cy="934.3" r="23.1"/>
<circle style="fill:#AD4625" cx="440.2" cy="926.6" r="23.1"/>
<circle style="fill:#AD4625" cx="507" cy="921" r="23.1"/>
<circle style="fill:#AD4625" cx="573.8" cy="924" r="23.1"/>
<circle style="fill:#AD4625" cx="640.6" cy="935.6" r="23.1"/>
<circle style="fill:#AD4625" cx="707.4" cy="951.6" r="23.1"/>
<circle style="fill:#AD4625" cx="774.2" cy="958.9" r="23.1"/>
<circle style="fill:#AD4625" cx="841.1" cy="961.9" r="23.1"/>
<circle style="fill:#AD4625" cx="907.9" cy="958.5" r="23.1"/>
<circle style="fill:#AD4625" cx="974.7" cy="952.9" r="23.1"/>
</svg>
